<svg xmlns="http://www.w3.org/2000/svg" width="24" height="24" fill="black" viewBox="0 0 24 24"><path d="M12 2.2c3.1 0 3.4 0 4.6.1 1.1.1 1.7.2 2.1.3.5.2.8.4 1.2.8.4.4.6.7.8 1.2.1.4.3.9.3 2.1.1 1.2.1 1.5.1 4.6s0 3.4-.1 4.6c-.1 1.1-.2 1.7-.3 2.1-.2.5-.4.8-.8 1.2-.4.4-.7.6-1.2.8-.4.1-.9.3-2.1.3-1.2.1-1.5.1-4.6.1s-3.4 0-4.6-.1c-1.1-.1-1.7-.2-2.1-.3-.5-.2-.8-.4-1.2-.8-.4-.4-.6-.7-.8-1.2-.1-.4-.3-.9-.3-2.1-.1-1.2-.1-1.5-.1-4.6s0-3.4.1-4.6c.1-1.1.2-1.7.3-2.1.2-.5.4-.8.8-1.2.4-.4.7-.6 1.2-.8.4-.1.9-.3 2.1-.3 1.2-.1 1.5-.1 4.6-.1m0-2.2c-3.2 0-3.6 0-4.9.1-1.3.1-2.2.3-3 .6-.8.3-1.5.7-2.1 1.4-.6.6-1.1 1.3-1.4 2.1-.3.8-.5 1.6-.6 3-.1 1.3-.1 1.7-.1 4.9s0 3.6.1 4.9c.1 1.3.3 2.2.6 3 .3.8.7 1.5 1.4 2.1.6.6 1.3 1.1 2.1 1.4.8.3 1.6.5 3 .6 1.3.1 1.7.1 4.9.1s3.6 0 4.9-.1c1.3-.1 2.2-.3 3-.6.8-.3 1.5-.7 2.1-1.4.6-.6 1.1-1.3 1.4-2.1.3-.8.5-1.6.6-3 .1-1.3.1-1.7.1-4.9s0-3.6-.1-4.9c-.1-1.3-.3-2.2-.6-3-.3-.8-.7-1.5-1.4-2.1-.6-.6-1.3-1.1-2.1-1.4-.8-.3-1.6-.5-3-.6-1.3-.1-1.7-.1-4.9-.1z"/><path d="M12 5.8c-3.4 0-6.2 2.8-6.2 6.2s2.8 6.2 6.2 6.2 6.2-2.8 6.2-6.2-2.8-6.2-6.2-6.2zm0 10.2c-2.2 0-4-1.8-4-4s1.8-4 4-4 4 1.8 4 4-1.8 4-4 4z"/><circle cx="18.4" cy="5.6" r="1.4"/></svg>
