<svg xmlns="http://www.w3.org/2000/svg" width="24" height="24" fill="black" viewBox="0 0 24 24"><path d="M12 2.2c-5.4 0-9.8 4.4-9.8 9.8 0 4 2.9 7.4 6.6 8.5-.1-.7-.2-1.7 0-2.4.2-.8 1.3-5.4 1.3-5.4s-.3-.5-.3-1.3c0-1.2.7-2.1 1.5-2.1.7 0 1.1.5 1.1 1.2 0 .7-.4 1.7-.6 2.6-.2 1 .6 1.8 1.7 1.8 2.1 0 3.5-2.7 3.5-5.8 0-2.4-1.6-4.1-4.5-4.1-3.3 0-5.4 2.4-5.4 5.1 0 1 .4 2 1 2.5.1.1.1.2.1.4 0 .5-.3 1.5-.4 1.7-.1.2-.2.3-.4.3-.2 0-.5-.1-.7-.4-.3-.4-.7-1-.7-2.2 0-3 2.2-5.8 6.4-5.8 3.4 0 6 2.4 6 5.5 0 3.4-2.1 6.1-5 6.1-1 0-2-.5-2.4-1.1l-.6 2.4c-.2.9-.8 2.1-1.2 2.8.9.3 1.9.5 2.9.5 5.4 0 9.8-4.4 9.8-9.8s-4.4-9.8-9.8-9.8z"/></svg>
