<svg xmlns="http://www.w3.org/2000/svg" width="24" height="24" fill="black" viewBox="0 0 24 24"><path d="M22.23 5.924c-.8.355-1.66.596-2.558.704.92-.553 1.627-1.428 1.959-2.472-.86.511-1.814.881-2.826 1.08-.812-.866-1.973-1.406-3.256-1.406-2.463 0-4.459 1.996-4.459 4.46 0 .35.04.69.116 1.016-3.708-.186-7.006-1.962-9.209-4.658-.384.662-.605 1.43-.605 2.25 0 1.553.791 2.922 1.996 3.726-.734-.023-1.426-.225-2.03-.56v.057c0 2.167 1.542 3.974 3.588 4.383-.376.102-.772.156-1.18.156-.288 0-.57-.027-.844-.079.57 1.779 2.22 3.073 4.176 3.106-1.53 1.2-3.46 1.918-5.56 1.918-.362 0-.718-.022-1.072-.064 1.98 1.269 4.33 2.008 6.856 2.008 8.228 0 12.732-6.82 12.732-12.732 0-.195-.004-.388-.013-.58.874-.63 1.634-1.413 2.235-2.309z"/></svg>
